<?xml version="1.0" encoding="UTF-8" standalone="no"?>
<!DOCTYPE svg PUBLIC "-//W3C//DTD SVG 1.1//EN" "http://www.w3.org/Graphics/SVG/1.1/DTD/svg11.dtd">
<svg width="100%" height="100%" viewBox="0 0 4925 4747" version="1.1" xmlns="http://www.w3.org/2000/svg" xmlns:xlink="http://www.w3.org/1999/xlink" xml:space="preserve" xmlns:serif="http://www.serif.com/" style="fill-rule:evenodd;clip-rule:evenodd;stroke-linejoin:round;stroke-miterlimit:2;">
    <rect id="Logo" x="0" y="0" width="4925" height="4746.628" style="fill:none;"/>
    <g>
        <clipPath id="_clip1">
            <rect x="0" y="0" width="4925" height="4746.628"/>
        </clipPath>
        <g clip-path="url(#_clip1)">
            <path d="M1838.831,802.034C1825.661,750.218 1819,696.965 1819,643.504C1819,288.343 2107.343,0 2462.504,0C2817.665,0 3106.008,288.343 3106.008,643.504C3106.008,696.965 3099.347,750.222 3086.177,802.034L2828.918,1814.102C2813.761,1873.73 2836.471,1936.575 2886.248,1972.74C2936.021,2008.901 3002.808,2011.083 3054.837,1978.241L3937.871,1420.828C3983.078,1392.288 4031.67,1369.497 4082.517,1352.976C4420.296,1243.224 4783.632,1428.354 4893.38,1766.133C5003.132,2103.912 4818.002,2467.248 4480.223,2576.996C4429.376,2593.516 4376.669,2603.636 4323.32,2607.124L3281.288,2675.205C3219.894,2679.217 3167.143,2720.235 3148.129,2778.751C3129.116,2837.263 3147.683,2901.457 3194.994,2940.787L3997.997,3608.355C4039.11,3642.534 4075.799,3681.699 4107.226,3724.95C4315.984,4012.28 4252.192,4415.041 3964.861,4623.799C3677.531,4832.557 3274.77,4768.765 3066.012,4481.434C3034.586,4438.183 3008.677,4391.184 2988.876,4341.523L2602.125,3371.533C2579.337,3314.385 2524.024,3276.89 2462.5,3276.89C2400.976,3276.89 2345.663,3314.384 2322.875,3371.533L1936.124,4341.523C1916.323,4391.184 1890.41,4438.183 1858.988,4481.434C1650.23,4768.764 1247.469,4832.556 960.139,4623.799C672.809,4415.041 609.017,4012.28 817.774,3724.95C849.2,3681.699 885.89,3642.53 927.003,3608.355L1730.006,2940.787C1777.317,2901.457 1795.884,2837.263 1776.871,2778.751C1757.858,2720.239 1705.107,2679.217 1643.712,2675.205L601.68,2607.124C548.332,2603.64 495.624,2593.516 444.777,2576.996C106.998,2467.244 -78.128,2103.907 31.62,1766.133C141.372,1428.354 504.709,1243.228 842.483,1352.976C893.33,1369.496 941.917,1392.288 987.129,1420.828L1870.163,1978.241C1922.187,2011.083 1988.978,2008.901 2038.752,1972.74C2088.525,1936.579 2111.239,1873.73 2096.082,1814.102L1838.823,802.034L1838.832,802.034L1838.831,802.034Z"/>
        </g>
    </g>
</svg>
